<svg width="165" height="200" viewBox="0 0 165 200" fill="none" xmlns="http://www.w3.org/2000/svg">
<path d="M105.05 169.911C105.244 169.711 105.403 169.472 105.512 169.2C105.842 168.382 105.659 167.439 105.05 166.812L93.0067 154.419C92.1753 153.564 90.8272 153.564 89.9959 154.419C89.1645 155.275 89.1645 156.662 89.9959 157.518L98.4051 166.171H61.3927C60.2166 166.171 59.2639 167.151 59.2639 168.362C59.2639 169.572 60.2166 170.552 61.3927 170.552H103.545C104.121 170.552 104.658 170.314 105.05 169.911Z" fill="white"/>
<path d="M59.8986 173.665C59.7045 173.865 59.5457 174.104 59.4369 174.376C59.1069 175.194 59.2899 176.137 59.8986 176.763L71.942 189.156C72.7734 190.012 74.1215 190.012 74.9529 189.156C75.7842 188.301 75.7842 186.914 74.9529 186.058L66.5436 177.405H103.556C104.732 177.405 105.685 176.424 105.685 175.214C105.685 174.004 104.732 173.024 103.556 173.024H61.404C60.8277 173.024 60.2904 173.262 59.8986 173.665Z" fill="white"/>
<path d="M112.984 145.535V198.114H164.369V145.535H112.984ZM134.394 152.107H142.959V165.252H134.394V152.107ZM121.548 152.107H130.112V165.252H121.548V152.107ZM153.664 195.923H123.689C122.511 195.923 121.548 194.938 121.548 193.733C121.548 192.528 122.511 191.542 123.689 191.542H153.664C154.842 191.542 155.805 192.528 155.805 193.733C155.805 194.938 154.842 195.923 153.664 195.923ZM153.664 187.16H123.689C122.511 187.16 121.548 186.174 121.548 184.969C121.548 183.765 122.511 182.779 123.689 182.779H153.664C154.842 182.779 155.805 183.765 155.805 184.969C155.805 186.174 154.842 187.16 153.664 187.16ZM153.664 178.397H123.689C122.511 178.397 121.548 177.411 121.548 176.206C121.548 175.001 122.511 174.015 123.689 174.015H153.664C154.842 174.015 155.805 175.001 155.805 176.206C155.805 177.411 154.842 178.397 153.664 178.397ZM155.805 165.252H147.241V152.107H155.805V165.252Z" fill="white"/>
<path d="M0.578369 145.535V198.114H51.9641V145.535H0.578369ZM21.9891 152.107H30.5534V165.252H21.9891V152.107ZM9.14265 152.107H17.7069V165.252H9.14265V152.107ZM41.2587 195.923H11.2837C10.1062 195.923 9.14265 194.938 9.14265 193.733C9.14265 192.528 10.1062 191.542 11.2837 191.542H41.2587C42.4363 191.542 43.3998 192.528 43.3998 193.733C43.3998 194.938 42.4363 195.923 41.2587 195.923ZM41.2587 187.16H11.2837C10.1062 187.16 9.14265 186.174 9.14265 184.969C9.14265 183.765 10.1062 182.779 11.2837 182.779H41.2587C42.4363 182.779 43.3998 183.765 43.3998 184.969C43.3998 186.174 42.4363 187.16 41.2587 187.16ZM41.2587 178.397H11.2837C10.1062 178.397 9.14265 177.411 9.14265 176.206C9.14265 175.001 10.1062 174.015 11.2837 174.015H41.2587C42.4363 174.015 43.3998 175.001 43.3998 176.206C43.3998 177.411 42.4363 178.397 41.2587 178.397ZM43.3998 165.252H34.8355V152.107H43.3998V165.252Z" fill="white"/>
<path d="M85.1577 14.0509V41.6169C92.8825 41.4397 100.537 40.0821 107.863 37.5896C102.871 24.1191 94.3676 15.3239 85.1577 14.0509Z" fill="white"/>
<path d="M100.569 17.15C105.745 22.4586 109.694 28.8706 112.127 35.9208C115.09 34.6563 117.922 33.098 120.584 31.2686C115.165 24.9543 108.288 20.1033 100.569 17.15Z" fill="white"/>
<path d="M85.1577 62.4928H112.423C112.261 55.5546 111.204 48.668 109.277 42.0093C101.491 44.6379 93.3608 46.0657 85.1577 46.2449V62.4928Z" fill="white"/>
<path d="M123.927 104.155H114.797C115.972 106.63 117.509 108.91 119.356 110.918C121.208 108.911 122.749 106.63 123.927 104.155Z" fill="white"/>
<path d="M94.277 129.615H144.43C145.034 129.615 145.614 129.371 146.042 128.937C146.469 128.503 146.709 127.914 146.709 127.3V90.2676C146.709 89.6537 146.469 89.065 146.042 88.631C145.614 88.1969 145.034 87.9531 144.43 87.9531H123.913C123.486 87.956 123.067 87.8356 122.704 87.6059L107.955 78.2321V85.6385C107.955 86.2524 107.715 86.8411 107.287 87.2752C106.86 87.7092 106.28 87.9531 105.675 87.9531H94.277C93.6724 87.9531 93.0925 88.1969 92.665 88.631C92.2375 89.065 91.9973 89.6537 91.9973 90.2676V127.3C91.9973 127.914 92.2375 128.503 92.665 128.937C93.0925 129.371 93.6724 129.615 94.277 129.615ZM105.675 99.5257H117.074V97.2112C117.074 96.5973 117.314 96.0086 117.741 95.5746C118.169 95.1405 118.749 94.8967 119.353 94.8967C119.958 94.8967 120.538 95.1405 120.965 95.5746C121.393 96.0086 121.633 96.5973 121.633 97.2112V99.5257H133.031C133.636 99.5257 134.216 99.7696 134.643 100.204C135.071 100.638 135.311 101.226 135.311 101.84C135.311 102.454 135.071 103.043 134.643 103.477C134.216 103.911 133.636 104.155 133.031 104.155H128.837C127.412 107.805 125.335 111.157 122.709 114.04C123.66 114.785 124.656 115.468 125.693 116.084L129.6 118.345C130.126 118.649 130.511 119.152 130.671 119.744C130.831 120.336 130.752 120.969 130.453 121.502C130.154 122.036 129.658 122.426 129.075 122.589C128.492 122.751 127.869 122.672 127.344 122.368L123.423 120.1C121.997 119.247 120.637 118.287 119.353 117.227C118.075 118.285 116.719 119.243 115.298 120.093L111.363 122.368C110.838 122.672 110.215 122.751 109.632 122.589C109.049 122.426 108.553 122.036 108.254 121.502C107.954 120.969 107.876 120.336 108.036 119.744C108.196 119.152 108.581 118.649 109.106 118.345L113.027 116.077C114.057 115.462 115.046 114.782 115.991 114.04C113.367 111.157 111.292 107.805 109.87 104.155H105.675C105.071 104.155 104.491 103.911 104.063 103.477C103.636 103.043 103.396 102.454 103.396 101.84C103.396 101.226 103.636 100.638 104.063 100.204C104.491 99.7696 105.071 99.5257 105.675 99.5257Z" fill="white"/>
<path d="M94.2764 83.3233H103.395V74.0652C103.4 73.654 103.512 73.2514 103.719 72.8982C103.927 72.545 104.223 72.2538 104.577 72.0541C104.931 71.8544 105.331 71.7532 105.736 71.7609C106.141 71.7686 106.536 71.8848 106.883 72.0978L111.875 75.2687C112.211 72.5651 112.408 69.8458 112.468 67.1216H85.1577V83.3927C87.3462 83.439 89.5803 83.5779 91.8371 83.7862C92.6179 83.4905 93.4431 83.3339 94.2764 83.3233Z" fill="white"/>
<path d="M113.581 40.3208C115.699 47.5226 116.856 54.98 117.023 62.494H132.935C132.526 52.5375 129.2 42.9314 123.384 34.9048C120.308 37.0478 117.023 38.8627 113.581 40.3208Z" fill="white"/>
<path d="M85.1577 115.655C85.91 115.609 86.6851 115.562 87.4374 115.493V90.2645C87.451 89.5324 87.574 88.8066 87.8021 88.112C86.9131 88.0657 86.0468 88.0426 85.1577 88.0194V115.655Z" fill="white"/>
<path d="M116.084 77.9536L124.564 83.3233H129.534C131.535 78.1497 132.675 72.6746 132.908 67.1216H117.019C116.925 70.7482 116.613 74.3657 116.084 77.9536Z" fill="white"/>
<path d="M46.9773 11.5716H45.8101L42.3906 23.1442H50.3968L46.9773 11.5716Z" fill="white"/>
<path d="M80.599 46.2221C78.3877 46.1758 76.1764 46.0369 73.9196 45.8286C73.1388 46.1243 72.3136 46.2809 71.4803 46.2915H62.3617V55.5496C62.3611 55.9626 62.2507 56.3677 62.042 56.7222C61.8333 57.0766 61.5342 57.3672 61.1762 57.5633C60.846 57.7646 60.4671 57.8687 60.082 57.8642C59.6554 57.8638 59.2372 57.7437 58.8738 57.517L53.8813 54.3461C53.5621 57.0309 53.357 59.7389 53.2886 62.4932H80.599V46.2221Z" fill="white"/>
<path d="M80.6034 115.565V87.9994C72.8787 88.1766 65.2243 89.5342 57.8979 92.0267C62.8904 105.497 71.3936 114.292 80.6034 115.565Z" fill="white"/>
<path d="M80.5927 13.9573C79.8404 14.0036 79.0653 14.0499 78.313 14.1193V39.3476C78.2994 40.0797 78.1764 40.8055 77.9482 41.5001C78.8373 41.5464 79.7036 41.5696 80.5927 41.5927V13.9573Z" fill="white"/>
<path d="M65.1898 112.462C60.0129 107.153 56.0648 100.741 53.6319 93.691C50.6689 94.9556 47.836 96.5139 45.1743 98.3432C50.5935 104.658 57.4706 109.509 65.1898 112.462Z" fill="white"/>
<path d="M80.6032 67.1216H53.3384C53.4998 74.0598 54.5574 80.9465 56.4843 87.6051C64.2701 84.9765 72.4002 83.5487 80.6032 83.3696V67.1216Z" fill="white"/>
<path d="M52.174 89.2948C50.0563 82.093 48.8985 74.6356 48.7317 67.1216H32.8196C33.2287 77.0781 36.5545 86.6842 42.3714 94.7107C45.4467 92.5678 48.7316 90.7529 52.174 89.2948Z" fill="white"/>
<path d="M36.1797 46.2913C34.1862 51.4661 33.0538 56.9412 32.8286 62.493H48.7179C48.8083 58.8739 49.1204 55.2639 49.6526 51.6842L41.1722 46.2913H36.1797Z" fill="white"/>
<path d="M21.317 41.6614H41.834C42.261 41.6585 42.6801 41.7789 43.0423 42.0086L57.7917 51.3824V43.9759C57.7917 43.362 58.0319 42.7733 58.4594 42.3393C58.8869 41.9052 59.4668 41.6614 60.0714 41.6614H71.4697C72.0743 41.6614 72.6542 41.4175 73.0817 40.9835C73.5092 40.5494 73.7494 39.9607 73.7494 39.3468V2.31441C73.7494 1.70055 73.5092 1.11185 73.0817 0.677788C72.6542 0.24373 72.0743 -0.00012207 71.4697 -0.00012207H21.317C20.7124 -0.00012207 20.1326 0.24373 19.7051 0.677788C19.2775 1.11185 19.0374 1.70055 19.0374 2.31441V39.3468C19.0374 39.9607 19.2775 40.5494 19.7051 40.9835C20.1326 41.4175 20.7124 41.6614 21.317 41.6614ZM35.0908 31.739L41.9298 8.59372C42.0705 8.11673 42.359 7.69855 42.7525 7.40126C43.1459 7.10397 43.6233 6.94343 44.1137 6.94346H48.673C49.1635 6.94343 49.6408 7.10397 50.0343 7.40126C50.4277 7.69855 50.7162 8.11673 50.857 8.59372L57.696 31.739C57.7819 32.0302 57.8105 32.3357 57.7801 32.6381C57.7498 32.9405 57.661 33.2339 57.519 33.5015C57.3769 33.769 57.1844 34.0056 56.9523 34.1976C56.7202 34.3896 56.4531 34.5334 56.1663 34.6206C55.9539 34.6844 55.7336 34.7171 55.512 34.7178C55.0216 34.7178 54.5442 34.5573 54.1508 34.26C53.7574 33.9627 53.4689 33.5445 53.3281 33.0675L51.7643 27.7742H41.0225L39.4586 33.0675C39.2851 33.6556 38.8886 34.1496 38.3563 34.4409C37.8241 34.7321 37.1996 34.7968 36.6204 34.6206C36.0412 34.4444 35.5547 34.0418 35.2678 33.5014C34.9809 32.961 34.9173 32.3271 35.0908 31.739Z" fill="white"/>
</svg>
