<svg width="141" height="116" viewBox="0 0 141 116" fill="none" xmlns="http://www.w3.org/2000/svg">
<path d="M54.8737 37.826C47.8695 37.826 42.1643 43.4861 42.1643 50.4347C42.1643 57.3834 47.8695 63.0434 54.8737 63.0434C61.4484 63.0434 66.8774 58.0545 67.5185 51.6956H72.7314C73.3725 58.0545 78.8014 63.0434 85.3762 63.0434C92.3803 63.0434 98.0856 57.3834 98.0856 50.4347C98.0856 43.4861 92.3803 37.826 85.3762 37.826C78.8014 37.826 73.3725 42.8149 72.7314 49.1739H67.5185C66.8774 42.8149 61.4484 37.826 54.8737 37.826Z" fill="black"/>
<path d="M0 50.7352C7.44922 70.7504 11.1421 92.7772 9.94906 114.744L9.87956 116H68.8541V70.6186L0 50.7352ZM140.25 50.7352L71.3959 70.6186V116H130.37L130.301 114.744C129.108 92.7772 132.801 70.7504 140.25 50.7352ZM123.614 75.2434L123.202 77.2381C122.314 81.5477 121.614 85.9067 121.082 90.3049L120.982 91.1569L82.8344 101.249V86.0297C96.4258 82.4282 110.024 78.8499 123.614 75.2434ZM18.1059 75.992L57.4156 85.7391V88.2609L18.6024 78.632C18.4308 77.7535 18.2917 76.8665 18.1059 75.992ZM120.392 78.7058L85.3763 87.9703V97.9686L118.699 89.1523C119.141 85.6432 119.726 82.1667 120.392 78.7058ZM19.9428 86.5321L57.4156 95.8261V98.3478L20.2903 89.1425C20.1792 88.271 20.0681 87.4007 19.9428 86.5321ZM21.0847 96.8998L57.4156 105.913V108.435L21.2932 99.4757C21.2404 98.6151 21.1515 97.7586 21.0847 96.8998ZM119.165 96.8998C119.099 97.7586 119.01 98.6151 118.957 99.4757L82.8344 108.435V105.913L119.165 96.8998Z" fill="black"/>
<path d="M53.6027 0C51.1492 0 48.9153 0.98593 47.3076 2.58084C45.7 4.17575 44.7062 6.39196 44.7062 8.82608V22.6956H95.5437V8.82608C95.5437 6.39196 94.5499 4.17575 92.9422 2.58084C91.3346 0.98593 89.1007 0 86.6471 0H53.6027Z" fill="black"/>
<path d="M31.9968 25.2174V35.3044H108.253V25.2174H31.9968Z" fill="black"/>
</svg>
