<svg width="165" height="200" viewBox="0 0 165 200" fill="none" xmlns="http://www.w3.org/2000/svg">
<path d="M104.602 168.811L104.6 168.814C104.543 168.957 104.459 169.085 104.353 169.193C104.143 169.41 103.854 169.538 103.545 169.538L61.3927 169.538C60.7609 169.538 60.2495 169.012 60.2495 168.362C60.2495 167.711 60.7609 167.185 61.3927 167.185L98.4051 167.185H100.785L99.102 165.454L90.6928 156.8C90.2463 156.341 90.2463 155.596 90.6928 155.137C91.1392 154.677 91.8633 154.677 92.3098 155.137L104.353 167.53C104.681 167.866 104.778 168.373 104.602 168.811Z" fill="white" stroke="black" stroke-width="2"/>
<path d="M60.3471 174.765L60.3485 174.762C60.4058 174.618 60.4898 174.491 60.5955 174.382C60.8061 174.165 61.0943 174.038 61.404 174.038L103.556 174.038C104.188 174.038 104.699 174.564 104.699 175.214C104.699 175.864 104.188 176.391 103.556 176.391L66.5436 176.391H64.1642L65.8467 178.122L74.2559 186.775C74.7024 187.235 74.7024 187.98 74.2559 188.439C73.8095 188.899 73.0854 188.899 72.6389 188.439L60.5955 176.046C60.2681 175.709 60.1706 175.203 60.3471 174.765Z" fill="white" stroke="black" stroke-width="2"/>
<path d="M134.394 151.107H133.394V152.107V165.252V166.252H134.394H142.959H143.959V165.252V152.107V151.107H142.959H134.394ZM121.548 151.107H120.548V152.107V165.252V166.252H121.548H130.112H131.112V165.252V152.107V151.107H130.112H121.548ZM155.805 166.252H156.805V165.252V152.107V151.107H155.805H147.241H146.241V152.107V165.252V166.252H147.241H155.805ZM163.369 197.114H113.984V146.535H163.369V197.114ZM123.689 196.923H153.664C155.415 196.923 156.805 195.468 156.805 193.733C156.805 191.997 155.415 190.542 153.664 190.542H123.689C121.938 190.542 120.548 191.997 120.548 193.733C120.548 195.468 121.938 196.923 123.689 196.923ZM123.689 188.16H153.664C155.415 188.16 156.805 186.705 156.805 184.969C156.805 183.234 155.415 181.779 153.664 181.779H123.689C121.938 181.779 120.548 183.234 120.548 184.969C120.548 186.705 121.938 188.16 123.689 188.16ZM123.689 179.397H153.664C155.415 179.397 156.805 177.942 156.805 176.206C156.805 174.471 155.415 173.015 153.664 173.015H123.689C121.938 173.015 120.548 174.471 120.548 176.206C120.548 177.942 121.938 179.397 123.689 179.397Z" fill="white" stroke="black" stroke-width="2"/>
<path d="M21.9891 151.107H20.9891V152.107V165.252V166.252H21.9891H30.5534H31.5534V165.252V152.107V151.107H30.5534H21.9891ZM9.14265 151.107H8.14265V152.107V165.252V166.252H9.14265H17.7069H18.7069V165.252V152.107V151.107H17.7069H9.14265ZM43.3998 166.252H44.3998V165.252V152.107V151.107H43.3998H34.8355H33.8355V152.107V165.252V166.252H34.8355H43.3998ZM50.9641 197.114H1.57837V146.535H50.9641V197.114ZM11.2837 196.923H41.2587C43.0101 196.923 44.3998 195.468 44.3998 193.733C44.3998 191.997 43.0101 190.542 41.2587 190.542H11.2837C9.53235 190.542 8.14265 191.997 8.14265 193.733C8.14265 195.468 9.53235 196.923 11.2837 196.923ZM11.2837 188.16H41.2587C43.0101 188.16 44.3998 186.705 44.3998 184.969C44.3998 183.234 43.0101 181.779 41.2587 181.779H11.2837C9.53235 181.779 8.14265 183.234 8.14265 184.969C8.14265 186.705 9.53235 188.16 11.2837 188.16ZM11.2837 179.397H41.2587C43.0101 179.397 44.3998 177.942 44.3998 176.206C44.3998 174.471 43.0101 173.015 41.2587 173.015H11.2837C9.53235 173.015 8.14265 174.471 8.14265 176.206C8.14265 177.942 9.53235 179.397 11.2837 179.397Z" fill="white" stroke="black" stroke-width="2"/>
<path d="M86.1577 15.24C94.2013 16.9381 101.804 24.7776 106.558 36.9699C99.9522 39.1159 93.0883 40.3328 86.1577 40.5867V15.24Z" fill="white" stroke="black" stroke-width="2"/>
<path d="M104.349 19.8925C109.902 22.6339 114.904 26.4245 119.081 31.0723C117.046 32.401 114.916 33.5712 112.707 34.5728C110.74 29.2358 107.913 24.2759 104.349 19.8925Z" fill="white" stroke="black" stroke-width="2"/>
<path d="M108.598 43.2867C110.232 49.2225 111.17 55.3335 111.392 61.4928H86.1577V47.2174C93.7804 46.9596 101.332 45.6369 108.598 43.2867Z" fill="white" stroke="black" stroke-width="2"/>
<path d="M119.357 109.407C118.247 108.091 117.267 106.667 116.433 105.155H122.289C121.453 106.667 120.471 108.091 119.357 109.407Z" fill="white" stroke="black" stroke-width="2"/>
<path d="M122.168 88.4499L122.169 88.4504C122.691 88.7817 123.297 88.9566 123.916 88.9531H144.43C144.764 88.9531 145.088 89.0878 145.329 89.3327C145.571 89.5781 145.709 89.9141 145.709 90.2676V127.3C145.709 127.654 145.571 127.99 145.329 128.235C145.088 128.48 144.764 128.615 144.43 128.615H94.277C93.9425 128.615 93.6187 128.48 93.3775 128.235C93.1358 127.99 92.9973 127.654 92.9973 127.3V90.2676C92.9973 89.9141 93.1358 89.5781 93.3775 89.3327C93.6187 89.0878 93.9425 88.9531 94.277 88.9531H105.675C106.55 88.9531 107.386 88.6001 108 87.9769C108.613 87.3542 108.955 86.5128 108.955 85.6385V80.0525L122.168 88.4499ZM126.843 123.233L126.843 123.233C127.6 123.671 128.5 123.787 129.343 123.552C130.186 123.318 130.897 122.754 131.325 121.991C131.753 121.229 131.864 120.328 131.636 119.484C131.408 118.639 130.858 117.917 130.101 117.479L126.199 115.221C125.504 114.808 124.828 114.364 124.173 113.891C126.393 111.282 128.195 108.334 129.512 105.155H133.031C133.906 105.155 134.742 104.802 135.356 104.179C135.969 103.556 136.311 102.714 136.311 101.84C136.311 100.966 135.969 100.125 135.356 99.5019C134.742 98.8787 133.906 98.5257 133.031 98.5257H122.633V97.2112C122.633 96.337 122.291 95.4956 121.678 94.8728C121.064 94.2496 120.228 93.8967 119.353 93.8967C118.479 93.8967 117.643 94.2496 117.029 94.8728C116.416 95.4956 116.074 96.337 116.074 97.2112V98.5257H105.675C104.801 98.5257 103.965 98.8787 103.351 99.5019C102.738 100.125 102.396 100.966 102.396 101.84C102.396 102.714 102.738 103.556 103.351 104.179C103.965 104.802 104.801 105.155 105.675 105.155H109.194C110.509 108.334 112.309 111.282 114.528 113.891C113.878 114.362 113.209 114.804 112.521 115.215L108.606 117.479C107.849 117.917 107.299 118.639 107.071 119.484C106.843 120.328 106.954 121.229 107.382 121.991C107.809 122.754 108.521 123.318 109.364 123.552C110.207 123.787 111.106 123.671 111.864 123.233L115.798 120.958L115.805 120.955L115.811 120.951C117.042 120.215 118.225 119.4 119.354 118.512C120.487 119.402 121.674 120.219 122.909 120.958L122.916 120.962L122.922 120.965L126.843 123.233Z" fill="white" stroke="black" stroke-width="2"/>
<path d="M94.2764 82.3233V82.3232L94.2637 82.3234C93.3926 82.3344 92.5295 82.4854 91.7064 82.7701C89.8397 82.6014 87.9857 82.4802 86.1577 82.4196V68.1216H111.439C111.376 69.941 111.25 71.7575 111.063 73.5679L107.419 71.2537L107.413 71.2498L107.407 71.2459C106.909 70.9399 106.339 70.7722 105.755 70.7611C105.17 70.75 104.595 70.896 104.086 71.1831C103.577 71.4702 103.153 71.8876 102.857 72.3916C102.561 72.8954 102.402 73.4686 102.395 74.0532L102.395 74.0532V74.0652V82.3233H94.2764Z" fill="white" stroke="black" stroke-width="2"/>
<path d="M117.996 61.494C117.762 54.5182 116.684 47.5978 114.786 40.8888C117.695 39.6005 120.489 38.0601 123.137 36.2848C128.292 43.7036 131.32 52.4307 131.883 61.494H117.996Z" fill="white" stroke="black" stroke-width="2"/>
<path d="M86.4376 90.2459L86.4374 90.2552V90.2645V114.57C86.3444 114.577 86.2511 114.583 86.1577 114.59V89.0473C86.2869 89.0513 86.4158 89.0554 86.5446 89.0597C86.4808 89.4515 86.4449 89.8479 86.4376 90.2459Z" fill="white" stroke="black" stroke-width="2"/>
<path d="M128.844 82.3233H124.854L117.166 77.4551C117.6 74.3605 117.874 71.2451 117.988 68.1216H131.854C131.549 72.9803 130.534 77.7664 128.844 82.3233Z" fill="white" stroke="black" stroke-width="2"/>
<path d="M43.7288 22.1442L46.3937 13.1255L49.0586 22.1442H43.7288Z" fill="white" stroke="black" stroke-width="2"/>
<path d="M54.3201 61.4932C54.3885 59.6627 54.5173 57.8508 54.6996 56.0505L58.3376 58.3611L58.3376 58.3611L58.3446 58.3655C58.8643 58.6896 59.4634 58.8627 60.0757 58.8642C60.6396 58.8698 61.1932 58.7189 61.6767 58.4292C62.1852 58.1461 62.6083 57.7314 62.9038 57.2295C63.2031 56.721 63.3609 56.1411 63.3617 55.551V55.5496V47.2915H71.4803V47.2916L71.493 47.2914C72.3641 47.2804 73.2272 47.1294 74.0503 46.8447C75.918 47.0136 77.7594 47.1349 79.599 47.1955V61.4932H54.3201Z" fill="white" stroke="black" stroke-width="2"/>
<path d="M59.2034 92.6464C65.8089 90.5004 72.6728 89.2835 79.6034 89.0296V114.376C71.5598 112.678 63.9571 104.839 59.2034 92.6464Z" fill="white" stroke="black" stroke-width="2"/>
<path d="M79.3128 39.3662L79.313 39.3569V39.3476V15.0418C79.406 15.0351 79.4993 15.0287 79.5927 15.0224V40.5648C79.4634 40.5609 79.3345 40.5568 79.2058 40.5524C79.2696 40.1607 79.3054 39.7642 79.3128 39.3662Z" fill="white" stroke="black" stroke-width="2"/>
<path d="M46.6776 98.5396C48.7121 97.2109 50.8427 96.0407 53.0512 95.0391C55.0188 100.376 57.8456 105.336 61.4091 109.719C55.8562 106.978 50.8545 103.187 46.6776 98.5396Z" fill="white" stroke="black" stroke-width="2"/>
<path d="M57.1628 86.3277C55.5291 80.3919 54.5911 74.2809 54.3685 68.1216H79.6032V82.397C71.9805 82.6548 64.4293 83.9775 57.1628 86.3277Z" fill="white" stroke="black" stroke-width="2"/>
<path d="M33.8724 68.1216H47.7592C47.9931 75.0974 49.0712 82.0178 50.9694 88.7268C48.0603 90.0151 45.2662 91.5555 42.6182 93.3308C37.4629 85.912 34.4349 77.1849 33.8724 68.1216Z" fill="white" stroke="black" stroke-width="2"/>
<path d="M47.7479 61.493H33.8809C34.1796 56.6353 35.1872 51.8491 36.8712 47.2913H40.8812L48.5701 52.1809C48.1341 55.2681 47.8597 58.3765 47.7479 61.493Z" fill="white" stroke="black" stroke-width="2"/>
<path d="M34.1317 31.456L34.1318 31.4556L40.9707 8.31069C40.9707 8.31058 40.9707 8.31046 40.9708 8.31035C41.1716 7.63008 41.5839 7.03088 42.1496 6.60343C42.7156 6.17573 43.4044 5.94343 44.1137 5.94346L34.1317 31.456ZM34.1317 31.456C33.8843 32.2943 33.9747 33.1983 34.3845 33.9703C34.7946 34.7428 35.4928 35.3228 36.3294 35.5773C37.1665 35.8319 38.0688 35.7381 38.8364 35.3181C39.6032 34.8985 40.1701 34.1894 40.4176 33.3509C40.4177 33.3508 40.4177 33.3506 40.4177 33.3505L41.7698 28.7742H51.017L52.369 33.3506C52.369 33.3507 52.3691 33.3508 52.3691 33.3509C52.5699 34.0311 52.9822 34.6304 53.5479 35.0578C54.114 35.4855 54.8028 35.7178 55.5121 35.7178L55.5151 35.7178C55.8332 35.7168 56.1493 35.6698 56.4539 35.5783L56.4572 35.5773C56.8714 35.4514 57.2561 35.2441 57.5897 34.9681C57.9233 34.6921 58.1992 34.3529 58.4023 33.9703C58.6053 33.5878 58.7319 33.169 58.7751 32.738C58.8184 32.307 58.7777 31.8714 58.6551 31.4559L58.655 31.4556M34.1317 31.456L58.655 31.4556M58.655 31.4556L51.8161 8.31069C51.6153 7.63029 51.2029 7.03095 50.6371 6.60343C50.0711 6.17573 49.3824 5.94343 48.673 5.94346C48.673 5.94346 48.673 5.94346 48.673 5.94346M58.655 31.4556L48.673 5.94346M48.673 5.94346H44.1138H48.673ZM43.5786 41.1646L43.5778 41.164C43.0553 40.8327 42.4495 40.6579 41.8309 40.6614H21.317C20.9826 40.6614 20.6587 40.5266 20.4175 40.2817C20.1758 40.0364 20.0374 39.7003 20.0374 39.3468V2.31441C20.0374 1.96092 20.1758 1.62491 20.4175 1.37951C20.6587 1.13463 20.9826 0.999878 21.317 0.999878H71.4697C71.8042 0.999878 72.128 1.13463 72.3692 1.37951C72.6109 1.6249 72.7494 1.96091 72.7494 2.31441V39.3468C72.7494 39.7003 72.6109 40.0364 72.3692 40.2817C72.128 40.5266 71.8042 40.6614 71.4697 40.6614H60.0714C59.1966 40.6614 58.3608 41.0143 57.7469 41.6376C57.1336 42.2603 56.7917 43.1017 56.7917 43.9759V49.562L43.5786 41.1646Z" fill="white" stroke="black" stroke-width="2"/>
</svg>
