<svg width="72" height="87" viewBox="0 0 72 87" fill="none" xmlns="http://www.w3.org/2000/svg">
<path d="M36.7913 6.11157V18.1028C40.1515 18.0258 43.4812 17.4352 46.6682 16.351C44.4965 10.4913 40.7976 6.66533 36.7913 6.11157Z" fill="black"/>
<path d="M43.4949 7.46069C45.7468 9.76994 47.4643 12.5592 48.5226 15.626C49.8115 15.0759 51.0438 14.3981 52.2017 13.6023C49.8443 10.8556 46.8527 8.74536 43.4949 7.46069Z" fill="black"/>
<path d="M36.7913 27.1843H48.6515C48.5813 24.1662 48.1213 21.1705 47.2831 18.2739C43.8962 19.4174 40.3596 20.0385 36.7913 20.1164V27.1843Z" fill="black"/>
<path d="M53.6545 45.3069H49.6829C50.194 46.3835 50.8627 47.3754 51.6662 48.2488C52.4714 47.3757 53.1418 46.3838 53.6545 45.3069Z" fill="black"/>
<path d="M40.758 56.3822H62.5746C62.8376 56.3822 63.0898 56.2762 63.2758 56.0874C63.4618 55.8985 63.5663 55.6425 63.5663 55.3754V39.2662C63.5663 38.9992 63.4618 38.7431 63.2758 38.5543C63.0898 38.3655 62.8376 38.2594 62.5746 38.2594H53.6496C53.4639 38.2607 53.2816 38.2083 53.1241 38.1084L46.708 34.0308V37.2526C46.708 37.5196 46.6035 37.7757 46.4175 37.9645C46.2316 38.1533 45.9793 38.2594 45.7163 38.2594H40.758C40.495 38.2594 40.2428 38.3655 40.0568 38.5543C39.8708 38.7431 39.7664 38.9992 39.7664 39.2662V55.3754C39.7664 55.6425 39.8708 55.8985 40.0568 56.0874C40.2428 56.2762 40.495 56.3822 40.758 56.3822ZM45.7163 43.2935H50.6746V42.2867C50.6746 42.0197 50.7791 41.7636 50.9651 41.5748C51.1511 41.386 51.4033 41.2799 51.6663 41.2799C51.9293 41.2799 52.1815 41.386 52.3675 41.5748C52.5535 41.7636 52.658 42.0197 52.658 42.2867V43.2935H57.6163C57.8793 43.2935 58.1315 43.3996 58.3175 43.5884C58.5035 43.7772 58.6079 44.0333 58.6079 44.3004C58.6079 44.5674 58.5035 44.8235 58.3175 45.0123C58.1315 45.2011 57.8793 45.3072 57.6163 45.3072H55.7916C55.1719 46.8952 54.2682 48.3531 53.126 49.6073C53.5396 49.9315 53.9732 50.2285 54.4241 50.4964L56.1238 51.48C56.3524 51.6122 56.5199 51.8311 56.5894 52.0887C56.659 52.3462 56.6249 52.6213 56.4947 52.8533C56.3645 53.0854 56.1489 53.2554 55.8952 53.326C55.6415 53.3966 55.3706 53.3621 55.1421 53.2299L53.4364 52.2432C52.8163 51.8725 52.2246 51.4548 51.6663 50.9937C51.1101 51.4539 50.5204 51.8705 49.9021 52.2402L48.1905 53.2299C47.962 53.3621 47.6911 53.3966 47.4374 53.326C47.1837 53.2554 46.9681 53.0854 46.8379 52.8533C46.7077 52.6213 46.6737 52.3462 46.7432 52.0887C46.8128 51.8311 46.9802 51.6122 47.2088 51.48L48.9144 50.4933C49.3622 50.226 49.7928 49.93 50.2036 49.6073C49.0622 48.3531 48.1595 46.8952 47.541 45.3072H45.7163C45.4533 45.3072 45.2011 45.2011 45.0151 45.0123C44.8291 44.8235 44.7247 44.5674 44.7247 44.3004C44.7247 44.0333 44.8291 43.7772 45.0151 43.5884C45.2011 43.3996 45.4533 43.2935 45.7163 43.2935Z" fill="black"/>
<path d="M40.7579 36.2458H44.7246V32.2185C44.7267 32.0396 44.7754 31.8645 44.8657 31.7108C44.9559 31.5572 45.0846 31.4305 45.2386 31.3437C45.3927 31.2568 45.5666 31.2128 45.7427 31.2161C45.9189 31.2195 46.0911 31.27 46.2418 31.3627L48.4135 32.742C48.5593 31.566 48.6454 30.383 48.6714 29.198H36.7913V36.276C37.7433 36.2961 38.7151 36.3565 39.6968 36.4471C40.0365 36.3185 40.3954 36.2504 40.7579 36.2458Z" fill="black"/>
<path d="M49.1575 17.5388C50.0787 20.6716 50.5823 23.9156 50.6549 27.1842H57.5767C57.3987 22.8531 55.952 18.6744 53.4216 15.1829C52.0839 16.115 50.6549 16.9045 49.1575 17.5388Z" fill="black"/>
<path d="M36.7913 50.311C37.1185 50.2909 37.4557 50.2708 37.7829 50.2406V39.2662C37.7888 38.9477 37.8423 38.632 37.9416 38.3298C37.5548 38.3097 37.178 38.2996 36.7913 38.2896V50.311Z" fill="black"/>
<path d="M50.2483 33.9099L53.9373 36.2458H56.0991C56.9695 33.9953 57.4654 31.6136 57.5668 29.198H50.6549C50.6143 30.7756 50.4785 32.3492 50.2483 33.9099Z" fill="black"/>
<path d="M20.1869 5.03418H19.6791L18.1917 10.0683H21.6744L20.1869 5.03418Z" fill="black"/>
<path d="M34.8081 20.1062C33.8462 20.0861 32.8843 20.0257 31.9025 19.9351C31.5629 20.0637 31.2039 20.1318 30.8414 20.1364H26.8748V24.1637C26.8746 24.3433 26.8265 24.5196 26.7357 24.6738C26.645 24.828 26.5148 24.9544 26.3591 25.0397C26.2155 25.1272 26.0507 25.1725 25.8831 25.1705C25.6976 25.1704 25.5157 25.1181 25.3576 25.0195L23.1858 23.6402C23.047 24.8081 22.9577 25.9861 22.928 27.1842H34.8081V20.1062Z" fill="black"/>
<path d="M34.8081 50.2708V38.2795C31.4478 38.3566 28.1181 38.9472 24.9312 40.0314C27.1029 45.8911 30.8018 49.7171 34.8081 50.2708Z" fill="black"/>
<path d="M34.808 6.07129C34.4808 6.09143 34.1436 6.11156 33.8164 6.14177V17.1161C33.8105 17.4346 33.757 17.7503 33.6577 18.0525C34.0445 18.0726 34.4213 18.0827 34.808 18.0928V6.07129Z" fill="black"/>
<path d="M28.1043 48.9214C25.8523 46.6122 24.1349 43.823 23.0765 40.7561C21.7876 41.3062 20.5553 41.9841 19.3975 42.7798C21.7548 45.5266 24.7464 47.6368 28.1043 48.9214Z" fill="black"/>
<path d="M34.808 29.198H22.9478C23.018 32.2161 23.478 35.2118 24.3162 38.1084C27.7031 36.9649 31.2397 36.3438 34.808 36.2659V29.198Z" fill="black"/>
<path d="M22.4419 38.8434C21.5207 35.7106 21.0171 32.4666 20.9445 29.198H14.0227C14.2007 33.5291 15.6474 37.7078 18.1778 41.1993C19.5155 40.2672 20.9445 39.4777 22.4419 38.8434Z" fill="black"/>
<path d="M15.4905 20.1362C14.6233 22.3873 14.1307 24.769 14.0327 27.184H20.9446C20.9839 25.6097 21.1197 24.0393 21.3512 22.4821L17.6622 20.1362H15.4905Z" fill="black"/>
<path d="M9.02462 18.1228H17.9496C18.1353 18.1216 18.3176 18.1739 18.4752 18.2738L24.8912 22.3515V19.1296C24.8912 18.8626 24.9957 18.6065 25.1817 18.4177C25.3676 18.2289 25.6199 18.1228 25.8829 18.1228H30.8412C31.1042 18.1228 31.3564 18.0168 31.5424 17.8279C31.7284 17.6391 31.8329 17.383 31.8329 17.116V1.00682C31.8329 0.739797 31.7284 0.483708 31.5424 0.294892C31.3564 0.106076 31.1042 0 30.8412 0H9.02462C8.76162 0 8.50938 0.106076 8.32341 0.294892C8.13744 0.483708 8.03296 0.739797 8.03296 1.00682V17.116C8.03296 17.383 8.13744 17.6391 8.32341 17.8279C8.50938 18.0168 8.76162 18.1228 9.02462 18.1228ZM15.0162 13.8066L17.9912 3.73834C18.0525 3.53085 18.178 3.34894 18.3491 3.21962C18.5203 3.09029 18.7279 3.02046 18.9412 3.02047H20.9246C21.1379 3.02046 21.3456 3.09029 21.5167 3.21962C21.6879 3.34894 21.8134 3.53085 21.8746 3.73834L24.8496 13.8066C24.887 13.9332 24.8994 14.0661 24.8862 14.1977C24.873 14.3292 24.8344 14.4569 24.7726 14.5733C24.7108 14.6897 24.627 14.7926 24.5261 14.8761C24.4251 14.9596 24.3089 15.0221 24.1842 15.0601C24.0918 15.0878 23.9959 15.1021 23.8996 15.1024C23.6862 15.1024 23.4786 15.0325 23.3074 14.9032C23.1363 14.7739 23.0108 14.592 22.9495 14.3845L22.2693 12.0819H17.5966L16.9163 14.3845C16.8408 14.6403 16.6683 14.8552 16.4368 14.9819C16.2052 15.1086 15.9336 15.1367 15.6817 15.0601C15.4297 14.9834 15.218 14.8083 15.0933 14.5732C14.9685 14.3382 14.9408 14.0624 15.0162 13.8066Z" fill="black"/>
<path d="M45.4478 73.9112C45.5322 73.8243 45.6013 73.7203 45.6486 73.6019C45.7922 73.2462 45.7126 72.8359 45.4478 72.5634L40.2089 67.1725C39.8472 66.8003 39.2608 66.8003 38.8992 67.1725C38.5375 67.5446 38.5375 68.1481 38.8992 68.5202L42.5572 72.2844H26.4567C25.9451 72.2844 25.5307 72.7108 25.5307 73.2373C25.5307 73.7638 25.9451 74.1902 26.4567 74.1902H44.793C45.0436 74.1902 45.2774 74.0866 45.4478 73.9112Z" fill="black"/>
<path d="M25.8022 75.5441C25.7178 75.631 25.6487 75.735 25.6014 75.8534C25.4578 76.2091 25.5374 76.6194 25.8022 76.8919L31.0411 82.2829C31.4028 82.655 31.9892 82.655 32.3508 82.2829C32.7125 81.9107 32.7125 81.3073 32.3508 80.9351L28.6928 77.1709H44.7933C45.3049 77.1709 45.7193 76.7445 45.7193 76.218C45.7193 75.6916 45.3049 75.2651 44.7933 75.2651H26.457C26.2064 75.2651 25.9726 75.3688 25.8022 75.5441Z" fill="black"/>
<path d="M48.897 63.3086V86.1806H71.2499V63.3086H48.897ZM58.2107 66.1676H61.9362V71.8856H58.2107V66.1676ZM52.6225 66.1676H56.348V71.8856H52.6225V66.1676ZM66.5931 85.2276H53.5538C53.0416 85.2276 52.6225 84.7987 52.6225 84.2746C52.6225 83.7505 53.0416 83.3216 53.5538 83.3216H66.5931C67.1053 83.3216 67.5244 83.7505 67.5244 84.2746C67.5244 84.7987 67.1053 85.2276 66.5931 85.2276ZM66.5931 81.4156H53.5538C53.0416 81.4156 52.6225 80.9867 52.6225 80.4626C52.6225 79.9385 53.0416 79.5096 53.5538 79.5096H66.5931C67.1053 79.5096 67.5244 79.9385 67.5244 80.4626C67.5244 80.9867 67.1053 81.4156 66.5931 81.4156ZM66.5931 77.6036H53.5538C53.0416 77.6036 52.6225 77.1747 52.6225 76.6506C52.6225 76.1265 53.0416 75.6976 53.5538 75.6976H66.5931C67.1053 75.6976 67.5244 76.1265 67.5244 76.6506C67.5244 77.1747 67.1053 77.6036 66.5931 77.6036ZM67.5244 71.8856H63.7989V66.1676H67.5244V71.8856Z" fill="black"/>
<path d="M0 63.3086V86.1806H22.3529V63.3086H0ZM9.31373 66.1676H13.0392V71.8856H9.31373V66.1676ZM3.72549 66.1676H7.45098V71.8856H3.72549V66.1676ZM17.6961 85.2276H4.65686C4.14462 85.2276 3.72549 84.7987 3.72549 84.2746C3.72549 83.7505 4.14462 83.3216 4.65686 83.3216H17.6961C18.2083 83.3216 18.6275 83.7505 18.6275 84.2746C18.6275 84.7987 18.2083 85.2276 17.6961 85.2276ZM17.6961 81.4156H4.65686C4.14462 81.4156 3.72549 80.9867 3.72549 80.4626C3.72549 79.9385 4.14462 79.5096 4.65686 79.5096H17.6961C18.2083 79.5096 18.6275 79.9385 18.6275 80.4626C18.6275 80.9867 18.2083 81.4156 17.6961 81.4156ZM17.6961 77.6036H4.65686C4.14462 77.6036 3.72549 77.1747 3.72549 76.6506C3.72549 76.1265 4.14462 75.6976 4.65686 75.6976H17.6961C18.2083 75.6976 18.6275 76.1265 18.6275 76.6506C18.6275 77.1747 18.2083 77.6036 17.6961 77.6036ZM18.6275 71.8856H14.902V66.1676H18.6275V71.8856Z" fill="black"/>
</svg>
