<svg width="95" height="116" viewBox="0 0 95 116" fill="none" xmlns="http://www.w3.org/2000/svg">
<path d="M49.0552 8.14856V24.1369C53.5356 24.0341 57.9751 23.2467 62.2245 21.8011C59.3288 13.9881 54.3969 8.8869 49.0552 8.14856Z" fill="black"/>
<path d="M57.9932 9.94727C60.9958 13.0263 63.2857 16.7452 64.6968 20.8344C66.4154 20.1009 68.0585 19.1971 69.6022 18.1361C66.4591 14.4738 62.4703 11.6602 57.9932 9.94727Z" fill="black"/>
<path d="M49.0552 36.2456H64.8689C64.7753 32.2215 64.1618 28.2272 63.0442 24.3651C58.5285 25.8897 53.813 26.7178 49.0552 26.8218V36.2456Z" fill="black"/>
<path d="M71.5394 60.4092H66.2439C66.9255 61.8446 67.817 63.1671 68.8883 64.3318C69.962 63.1676 70.8558 61.8451 71.5394 60.4092Z" fill="black"/>
<path d="M54.3439 75.1762H83.4327C83.7834 75.1762 84.1197 75.0348 84.3677 74.783C84.6156 74.5313 84.7549 74.1898 84.7549 73.8338V52.3549C84.7549 51.9989 84.6156 51.6574 84.3677 51.4057C84.1197 51.1539 83.7834 51.0125 83.4327 51.0125H71.5328C71.2851 51.0142 71.0421 50.9443 70.832 50.8111L62.2772 45.3743V49.67C62.2772 50.0261 62.1379 50.3675 61.89 50.6193C61.642 50.871 61.3057 51.0125 60.955 51.0125H54.3439C53.9933 51.0125 53.657 51.1539 53.409 51.4057C53.161 51.6574 53.0217 51.9989 53.0217 52.3549V73.8338C53.0217 74.1898 53.161 74.5313 53.409 74.783C53.657 75.0348 53.9933 75.1762 54.3439 75.1762ZM60.955 57.7246H67.5661V56.3822C67.5661 56.0262 67.7054 55.6847 67.9534 55.433C68.2013 55.1812 68.5377 55.0398 68.8883 55.0398C69.239 55.0398 69.5753 55.1812 69.8233 55.433C70.0712 55.6847 70.2105 56.0262 70.2105 56.3822V57.7246H76.8216C77.1723 57.7246 77.5086 57.8661 77.7566 58.1178C78.0045 58.3696 78.1438 58.711 78.1438 59.0671C78.1438 59.4231 78.0045 59.7646 77.7566 60.0163C77.5086 60.2681 77.1723 60.4095 76.8216 60.4095H74.3887C73.5625 62.5269 72.3575 64.4708 70.8346 66.143C71.386 66.5753 71.9641 66.9712 72.5654 67.3284L74.8317 68.6399C75.1364 68.8162 75.3597 69.1081 75.4525 69.4515C75.5452 69.7949 75.4998 70.1616 75.3262 70.471C75.1526 70.7804 74.8651 71.0071 74.5269 71.1013C74.1886 71.1954 73.8274 71.1493 73.5227 70.9731L71.2485 69.6575C70.4216 69.1632 69.6327 68.6063 68.8883 67.9915C68.1467 68.605 67.3604 69.1606 66.5361 69.6535L64.254 70.9731C63.9492 71.1493 63.588 71.1954 63.2498 71.1013C62.9116 71.0071 62.624 70.7804 62.4505 70.471C62.2769 70.1616 62.2315 69.7949 62.3242 69.4515C62.4169 69.1081 62.6402 68.8162 62.945 68.6399L65.2192 67.3244C65.8162 66.9679 66.3903 66.5733 66.9381 66.143C65.4162 64.4707 64.2125 62.5268 63.3879 60.4095H60.955C60.6044 60.4095 60.268 60.2681 60.0201 60.0163C59.7721 59.7646 59.6328 59.4231 59.6328 59.0671C59.6328 58.711 59.7721 58.3696 60.0201 58.1178C60.268 57.8661 60.6044 57.7246 60.955 57.7246Z" fill="black"/>
<path d="M54.344 48.3276H59.6329V42.9578C59.6358 42.7193 59.7007 42.4858 59.821 42.281C59.9414 42.0761 60.113 41.9073 60.3183 41.7914C60.5237 41.6756 60.7556 41.6169 60.9905 41.6214C61.2254 41.6258 61.4549 41.6932 61.6559 41.8168L64.5516 43.6559C64.7459 42.0878 64.8607 40.5106 64.8953 38.9305H49.0552V48.3678C50.3245 48.3947 51.6203 48.4752 52.9293 48.596C53.3821 48.4245 53.8607 48.3337 54.344 48.3276Z" fill="black"/>
<path d="M65.5432 23.3852C66.7715 27.5622 67.443 31.8876 67.5398 36.2457H76.7688C76.5315 30.4709 74.6025 24.8993 71.2287 20.2439C69.4451 21.4868 67.5398 22.5395 65.5432 23.3852Z" fill="black"/>
<path d="M49.0552 67.0816C49.4915 67.0548 49.9411 67.0279 50.3774 66.9876V52.3551C50.3853 51.9305 50.4566 51.5096 50.5889 51.1067C50.0733 51.0798 49.5708 51.0664 49.0552 51.053V67.0816Z" fill="black"/>
<path d="M66.9978 45.2131L71.9164 48.3276H74.7989C75.9594 45.3269 76.6207 42.1513 76.7558 38.9305H67.5399C67.4858 41.034 67.3047 43.1321 66.9978 45.2131Z" fill="black"/>
<path d="M26.9159 6.71216H26.2389L24.2556 13.4243H28.8992L26.9159 6.71216Z" fill="black"/>
<path d="M46.4107 26.8084C45.1282 26.7816 43.8456 26.701 42.5366 26.5802C42.0838 26.7517 41.6051 26.8425 41.1218 26.8487H35.833V32.2184C35.8327 32.4579 35.7686 32.6929 35.6476 32.8985C35.5265 33.1041 35.353 33.2726 35.1454 33.3863C34.9539 33.5031 34.7342 33.5635 34.5108 33.5608C34.2633 33.5607 34.0208 33.491 33.81 33.3595L30.9143 31.5203C30.7292 33.0776 30.6102 34.6482 30.5706 36.2457H46.4107V26.8084Z" fill="black"/>
<path d="M46.4107 67.0277V51.0393C41.9303 51.1421 37.4908 51.9295 33.2415 53.3751C36.1371 61.1881 41.069 66.2893 46.4107 67.0277Z" fill="black"/>
<path d="M46.4107 8.09473C45.9744 8.12158 45.5248 8.14842 45.0885 8.1887V22.8212C45.0806 23.2458 45.0093 23.6668 44.877 24.0697C45.3926 24.0965 45.8951 24.1099 46.4107 24.1234V8.09473Z" fill="black"/>
<path d="M37.4723 65.2287C34.4697 62.1497 32.1798 58.4307 30.7687 54.3416C29.0501 55.075 27.4071 55.9788 25.8633 57.0398C29.0064 60.7022 32.9952 63.5158 37.4723 65.2287Z" fill="black"/>
<path d="M46.4106 38.9305H30.5969C30.6905 42.9547 31.304 46.949 32.4216 50.8111C36.9373 49.2864 41.6528 48.4583 46.4106 48.3544V38.9305Z" fill="black"/>
<path d="M29.9226 51.791C28.6944 47.614 28.0229 43.2887 27.9261 38.9305H18.697C18.9343 44.7053 20.8633 50.2769 24.2371 54.9323C26.0208 53.6894 27.9261 52.6368 29.9226 51.791Z" fill="black"/>
<path d="M20.6539 26.8484C19.4976 29.8498 18.8408 33.0254 18.7102 36.2454H27.9261C27.9785 34.1463 28.1595 32.0525 28.4682 29.9763L23.5495 26.8484H20.6539Z" fill="black"/>
<path d="M12.0329 24.1638H23.9329C24.1805 24.1621 24.4236 24.2319 24.6336 24.3651L33.1884 29.802V25.5062C33.1884 25.1502 33.3277 24.8087 33.5756 24.5569C33.8236 24.3052 34.1599 24.1638 34.5106 24.1638H41.1217C41.4723 24.1638 41.8087 24.0223 42.0566 23.7706C42.3046 23.5188 42.4439 23.1774 42.4439 22.8213V1.34243C42.4439 0.986396 42.3046 0.644944 42.0566 0.393189C41.8087 0.141435 41.4723 0 41.1217 0H12.0329C11.6822 0 11.3459 0.141435 11.098 0.393189C10.85 0.644944 10.7107 0.986396 10.7107 1.34243V22.8213C10.7107 23.1774 10.85 23.5188 11.098 23.7706C11.3459 24.0223 11.6822 24.1638 12.0329 24.1638ZM20.0217 18.4088L23.9884 4.98445C24.07 4.70779 24.2374 4.46525 24.4656 4.29282C24.6937 4.12039 24.9706 4.02727 25.2551 4.02729H27.8995C28.184 4.02727 28.4608 4.12039 28.689 4.29282C28.9172 4.46525 29.0846 4.70779 29.1662 4.98445L33.1328 18.4088C33.1827 18.5776 33.1993 18.7548 33.1817 18.9302C33.1641 19.1056 33.1126 19.2758 33.0302 19.431C32.9478 19.5862 32.8361 19.7234 32.7015 19.8348C32.5669 19.9461 32.412 20.0295 32.2456 20.0801C32.1224 20.1171 31.9946 20.1361 31.8662 20.1365C31.5817 20.1365 31.3048 20.0434 31.0766 19.8709C30.8484 19.6985 30.6811 19.456 30.5995 19.1793L29.6924 16.1092H23.4621L22.5551 19.1793C22.4545 19.5204 22.2245 19.8069 21.9158 19.9758C21.6071 20.1448 21.2449 20.1823 20.9089 20.0801C20.573 19.9779 20.2908 19.7444 20.1244 19.431C19.958 19.1175 19.9211 18.7498 20.0217 18.4088Z" fill="black"/>
<path d="M60.5971 98.5482C60.7096 98.4323 60.8017 98.2937 60.8648 98.1358C61.0562 97.6615 60.9501 97.1144 60.5971 96.7512L53.6118 89.5632C53.1296 89.067 52.3477 89.067 51.8655 89.5632C51.3833 90.0594 51.3833 90.864 51.8655 91.3602L56.7429 96.3791H35.2756C34.5935 96.3791 34.0409 96.9477 34.0409 97.6497C34.0409 98.3516 34.5935 98.9202 35.2756 98.9202L59.7239 98.9202C60.0582 98.9202 60.3698 98.782 60.5971 98.5482Z" fill="black"/>
<path d="M34.4029 100.726C34.2904 100.841 34.1983 100.98 34.1352 101.138C33.9437 101.612 34.0499 102.159 34.4029 102.523L41.3882 109.711C41.8703 110.207 42.6523 110.207 43.1345 109.711C43.6167 109.214 43.6167 108.41 43.1345 107.914L38.2571 102.895H59.7244C60.4065 102.895 60.9591 102.326 60.9591 101.624C60.9591 100.922 60.4065 100.354 59.7244 100.354L35.2761 100.354C34.9418 100.354 34.6302 100.492 34.4029 100.726Z" fill="black"/>
<path d="M65.196 84.4116V114.908H95V84.4116H65.196ZM77.6143 88.2236H82.5817V95.8476H77.6143V88.2236ZM70.1634 88.2236H75.1307V95.8476H70.1634V88.2236ZM88.7908 113.637H71.4052C70.7222 113.637 70.1634 113.065 70.1634 112.366C70.1634 111.667 70.7222 111.096 71.4052 111.096H88.7908C89.4738 111.096 90.0326 111.667 90.0326 112.366C90.0326 113.065 89.4738 113.637 88.7908 113.637ZM88.7908 108.554H71.4052C70.7222 108.554 70.1634 107.982 70.1634 107.284C70.1634 106.585 70.7222 106.013 71.4052 106.013H88.7908C89.4738 106.013 90.0326 106.585 90.0326 107.284C90.0326 107.982 89.4738 108.554 88.7908 108.554ZM88.7908 103.472H71.4052C70.7222 103.472 70.1634 102.9 70.1634 102.201C70.1634 101.502 70.7222 100.93 71.4052 100.93H88.7908C89.4738 100.93 90.0326 101.502 90.0326 102.201C90.0326 102.9 89.4738 103.472 88.7908 103.472ZM90.0326 95.8476H85.0653V88.2236H90.0326V95.8476Z" fill="black"/>
<path d="M0 84.4116V114.908H29.8039V84.4116H0ZM12.4183 88.2236H17.3856V95.8476H12.4183V88.2236ZM4.96732 88.2236H9.93464V95.8476H4.96732V88.2236ZM23.5948 113.637H6.20915C5.52616 113.637 4.96732 113.065 4.96732 112.366C4.96732 111.667 5.52616 111.096 6.20915 111.096H23.5948C24.2778 111.096 24.8366 111.667 24.8366 112.366C24.8366 113.065 24.2778 113.637 23.5948 113.637ZM23.5948 108.554H6.20915C5.52616 108.554 4.96732 107.982 4.96732 107.284C4.96732 106.585 5.52616 106.013 6.20915 106.013H23.5948C24.2778 106.013 24.8366 106.585 24.8366 107.284C24.8366 107.982 24.2778 108.554 23.5948 108.554ZM23.5948 103.472H6.20915C5.52616 103.472 4.96732 102.9 4.96732 102.201C4.96732 101.502 5.52616 100.93 6.20915 100.93H23.5948C24.2778 100.93 24.8366 101.502 24.8366 102.201C24.8366 102.9 24.2778 103.472 23.5948 103.472ZM24.8366 95.8476H19.8693V88.2236H24.8366V95.8476Z" fill="black"/>
</svg>
